<svg xmlns="http://www.w3.org/2000/svg" xmlns:xlink="http://www.w3.org/1999/xlink" width="1920" zoomAndPan="magnify" viewBox="0 0 1440 809.999993" height="1080" preserveAspectRatio="xMidYMid meet" version="1.0"><defs><clipPath id="id1"><path d="M 632.175781 338.15625 L 795.675781 338.15625 L 795.675781 501.65625 L 632.175781 501.65625 Z M 632.175781 338.15625 " clip-rule="nonzero"/></clipPath></defs><path fill="#000000" d="M 749.878906 401.929688 C 749.878906 401.929688 751.117188 428.03125 731.214844 444.148438 C 701.53125 468.253906 669.503906 448.695312 669.503906 448.695312 C 669.503906 448.695312 677.289062 448.832031 684.175781 446.972656 C 691.0625 445.113281 695.953125 440.707031 695.953125 440.707031 C 695.953125 440.707031 688.445312 439.121094 684.589844 436.296875 C 680.664062 433.472656 679.214844 428.03125 679.214844 428.03125 C 679.214844 428.03125 681.765625 428.238281 683.417969 428.238281 C 685.070312 428.171875 687.066406 427.414062 687.066406 427.414062 C 687.066406 427.414062 681.695312 426.792969 676.667969 421.144531 C 672.742188 416.738281 673.015625 409.367188 673.015625 409.367188 C 673.015625 409.367188 675.359375 410.746094 676.667969 411.089844 C 677.90625 411.433594 680.316406 411.433594 680.316406 411.433594 C 680.316406 411.433594 675.632812 408.609375 673.5 401.449219 C 671.433594 394.21875 675.429688 386.917969 675.429688 386.917969 C 675.429688 386.917969 682.316406 395.320312 692.714844 400.761719 C 703.113281 406.199219 712.894531 405.996094 712.894531 405.996094 C 712.894531 405.996094 711.449219 401.65625 713.925781 395.320312 C 716.40625 388.914062 722.054688 384.367188 730.59375 383.679688 C 739.132812 382.992188 744.574219 389.464844 744.574219 389.464844 C 744.574219 389.464844 747.191406 388.984375 750.222656 387.882812 C 753.253906 386.777344 756.214844 385.402344 756.214844 385.402344 C 756.214844 385.402344 755.179688 388.636719 753.113281 391.1875 C 751.046875 393.734375 748.707031 395.25 748.707031 395.25 C 748.707031 395.25 751.394531 395.042969 754.078125 394.285156 C 756.765625 393.527344 758.28125 392.769531 758.28125 392.769531 C 755.320312 398.003906 749.878906 401.929688 749.878906 401.929688 Z M 749.878906 401.929688 " fill-opacity="1" fill-rule="nonzero"/><g clip-path="url(#id1)"><path fill="#000000" d="M 713.925781 501.65625 C 668.886719 501.65625 632.175781 465.015625 632.175781 419.90625 C 632.175781 374.796875 668.886719 338.15625 713.925781 338.15625 C 758.96875 338.15625 795.675781 374.863281 795.675781 419.90625 C 795.675781 464.949219 759.039062 501.65625 713.925781 501.65625 Z M 713.925781 342.632812 C 671.296875 342.632812 636.652344 377.273438 636.652344 419.90625 C 636.652344 462.539062 671.296875 497.179688 713.925781 497.179688 C 756.558594 497.179688 791.199219 462.539062 791.199219 419.90625 C 791.199219 377.273438 756.558594 342.632812 713.925781 342.632812 Z M 713.925781 342.632812 " fill-opacity="1" fill-rule="nonzero"/></g></svg>